<svg width="24" height="24" viewBox="0 0 24 24" fill="none" xmlns="http://www.w3.org/2000/svg">
<path d="M2.00003 2.00098C1.59385 2.00098 1.22802 2.24667 1.07436 2.62266C0.92069 2.99865 1.00972 3.43024 1.29963 3.71473L7.06979 9.37697C7.22153 9.52587 7.45084 9.56253 7.64144 9.46838L15.7753 5.45024C16.2584 5.18255 16.867 5.35715 17.1347 5.84023C17.4024 6.3233 17.2278 6.93191 16.7447 7.1996L9.00272 11.9806C8.81868 12.0943 8.72859 12.3134 8.77946 12.5236L10.7261 20.5691C10.8217 20.9643 11.1471 21.2623 11.5492 21.3228C11.9512 21.3834 12.3499 21.1944 12.5577 20.8449L22.8597 3.5119C23.0433 3.20284 23.047 2.81896 22.8692 2.50647C22.6914 2.19398 22.3596 2.00098 22 2.00098H2.00003Z" fill="#262626"/>
</svg>
